# xmcd
# Track frame offsets:
# 150
# 19510
# 38882
# 57099
# 78012
# 99720
# 126748
# 146799
# 170044
# 187052
#
# Disc length: 2724 seconds
# Revision: 0
# Processed by: cddbd v1.4PL0 Copyright (c) Steve Scherf et al.
# Submitted via: VisiTrax 2.9.5.181 - For more info visit www.synapsa.com
#
DISCID=8c0aa20a
DTITLE=Chuck Roberson - A Woman Wants A Freak!
DYEAR=2003
DGENRE=Blues
TTITLE0=Turn It Loose
TTITLE1=A Woman Wants A Freak
TTITLE2=You Don't Know How Good You Got It
TTITLE3=A Heart Can Love Two
TTITLE4=You Are
TTITLE5=No Time Like The Present
TTITLE6=Chuck Strut
TTITLE7=I Forgot To Be Your Lover
TTITLE8=I Can Handle It
TTITLE9=Double Cross
EXTD=
EXTT0=
EXTT1=
EXTT2=
EXTT3=
EXTT4=
EXTT5=
EXTT6=
EXTT7=
EXTT8=
EXTT9=
PLAYORDER=
